<svg width="146" height="42" viewBox="0 0 73 21" fill="none" xmlns="http://www.w3.org/2000/svg">
<path d="M2.69727 20.752C2.54232 20.752 2.33724 20.679 2.08203 20.5332C1.83594 20.3965 1.5944 20.2233 1.35742 20.0137C1.12044 19.8132 0.915365 19.6035 0.742188 19.3848C0.56901 19.166 0.482422 18.9792 0.482422 18.8242C0.482422 18.5508 0.559896 18.1178 0.714844 17.5254C0.860677 16.9329 1.05664 16.2585 1.30273 15.502C1.54883 14.7363 1.82682 13.9206 2.13672 13.0547C2.45573 12.1888 2.77474 11.3411 3.09375 10.5117H1.16602H1.15234C1.14323 10.5117 1.13867 10.5026 1.13867 10.4844C1.13867 10.4297 1.16146 10.3522 1.20703 10.252C1.24349 10.1426 1.29362 10.0332 1.35742 9.92383C1.41211 9.80534 1.48047 9.70052 1.5625 9.60938C1.63542 9.50911 1.70833 9.44531 1.78125 9.41797L3.55859 9.33594C3.8138 8.71615 4.05534 8.14648 4.2832 7.62695C4.52018 7.09831 4.72982 6.64714 4.91211 6.27344C4.95768 6.17318 5.00326 6.06836 5.04883 5.95898C5.10352 5.84049 5.17643 5.72656 5.26758 5.61719C5.36784 5.4987 5.49544 5.38021 5.65039 5.26172C5.81445 5.13411 6.0332 5.00651 6.30664 4.87891C6.50716 4.77865 6.7487 4.66927 7.03125 4.55078C7.32292 4.43229 7.60547 4.32292 7.87891 4.22266C8.16146 4.1224 8.41667 4.04036 8.64453 3.97656C8.8724 3.90365 9.03646 3.86719 9.13672 3.86719C9.22786 3.86719 9.27344 3.88542 9.27344 3.92188V3.94922C9.27344 3.95833 9.26432 3.98112 9.24609 4.01758C9.19141 4.10872 9.09115 4.30924 8.94531 4.61914C8.79948 4.91992 8.61719 5.30273 8.39844 5.76758C8.1888 6.22331 7.95182 6.7474 7.6875 7.33984C7.43229 7.92318 7.16797 8.54297 6.89453 9.19922L10.1758 9.07617C10.2669 9.07617 10.2943 9.13086 10.2578 9.24023C10.2214 9.34961 10.153 9.47721 10.0527 9.62305C9.95247 9.76888 9.83398 9.91927 9.69727 10.0742C9.56966 10.2292 9.46029 10.3477 9.36914 10.4297C9.35091 10.4479 9.31445 10.4661 9.25977 10.4844C9.20508 10.5026 9.13672 10.5117 9.05469 10.5117H6.34766C6.01953 11.3047 5.70508 12.1068 5.4043 12.918C5.10352 13.7292 4.83464 14.4993 4.59766 15.2285C4.36068 15.9577 4.16927 16.6276 4.02344 17.2383C3.88672 17.849 3.81836 18.3503 3.81836 18.7422C3.81836 18.7969 3.8457 18.8242 3.90039 18.8242C4.00065 18.8242 4.15104 18.7695 4.35156 18.6602C4.55208 18.5417 4.77539 18.3913 5.02148 18.209C5.27669 18.0267 5.54557 17.8262 5.82812 17.6074C6.11068 17.3887 6.37956 17.1745 6.63477 16.9648C6.88997 16.7461 7.11784 16.5501 7.31836 16.377C7.52799 16.1947 7.6875 16.0579 7.79688 15.9668C7.87891 16.0488 7.97461 16.1536 8.08398 16.2812C8.20247 16.4089 8.31185 16.5273 8.41211 16.6367C8.21159 16.8372 7.96094 17.0833 7.66016 17.375C7.35938 17.6576 7.03125 17.9492 6.67578 18.25C6.32943 18.5508 5.96484 18.8516 5.58203 19.1523C5.20833 19.4531 4.83919 19.722 4.47461 19.959C4.11914 20.196 3.78646 20.3874 3.47656 20.5332C3.16667 20.679 2.9069 20.752 2.69727 20.752ZM13.9766 14.3398C13.8581 14.6953 13.7077 15.1009 13.5254 15.5566C13.3522 16.0124 13.1836 16.459 13.0195 16.8965C12.8555 17.334 12.7142 17.7305 12.5957 18.0859C12.4863 18.4414 12.4316 18.6966 12.4316 18.8516C12.4316 18.9062 12.459 18.9336 12.5137 18.9336C12.6139 18.9336 12.7643 18.8743 12.9648 18.7559C13.1654 18.6374 13.3932 18.4824 13.6484 18.291C13.9128 18.0996 14.1862 17.89 14.4688 17.6621C14.7513 17.4342 15.0202 17.2109 15.2754 16.9922C15.5397 16.7643 15.7767 16.5592 15.9863 16.377C16.196 16.1947 16.3555 16.0579 16.4648 15.9668C16.5469 16.0488 16.6426 16.1536 16.752 16.2812C16.8704 16.4089 16.9798 16.5273 17.0801 16.6367C16.8796 16.8372 16.6289 17.0833 16.3281 17.375C16.0273 17.6576 15.6992 17.9492 15.3438 18.25C14.9974 18.5508 14.6328 18.8516 14.25 19.1523C13.8763 19.4531 13.5072 19.722 13.1426 19.959C12.7871 20.196 12.4544 20.3874 12.1445 20.5332C11.8346 20.679 11.5749 20.752 11.3652 20.752C11.2285 20.752 11.0553 20.7018 10.8457 20.6016C10.6361 20.5104 10.4355 20.3919 10.2441 20.2461C10.0527 20.1094 9.88867 19.9544 9.75195 19.7812C9.61523 19.6081 9.54688 19.4395 9.54688 19.2754C9.68359 18.6647 9.82031 18.1315 9.95703 17.6758C10.0938 17.2201 10.2214 16.8327 10.3398 16.5137C10.4583 16.1855 10.5632 15.9212 10.6543 15.7207C10.7454 15.5202 10.8138 15.3698 10.8594 15.2695C10.75 15.224 10.6452 15.1738 10.5449 15.1191C10.4447 15.0645 10.3444 15.0098 10.2441 14.9551C10.0983 15.11 9.93424 15.2741 9.75195 15.4473C9.57878 15.6204 9.40104 15.7936 9.21875 15.9668C9.03646 16.14 8.85417 16.3086 8.67188 16.4727C8.48958 16.6367 8.32552 16.7871 8.17969 16.9238L7.52344 16.2539C7.76042 16.026 8.04753 15.7526 8.38477 15.4336C8.71289 15.1055 9.03646 14.7773 9.35547 14.4492C9.1276 14.3125 8.92253 14.1849 8.74023 14.0664C8.55794 13.9388 8.40299 13.8249 8.27539 13.7246C8.12044 13.6152 7.98372 13.515 7.86523 13.4238C7.81055 13.3965 7.7832 13.3372 7.7832 13.2461C7.7832 13.1458 7.82422 13.0046 7.90625 12.8223C7.97917 12.6309 8.07487 12.4303 8.19336 12.2207C8.31185 12.002 8.43945 11.7832 8.57617 11.5645C8.71289 11.3366 8.84505 11.1315 8.97266 10.9492C9.10026 10.7669 9.20964 10.6211 9.30078 10.5117C9.40104 10.3932 9.46484 10.334 9.49219 10.334C9.51042 10.334 9.56966 10.3568 9.66992 10.4023C9.7793 10.4479 9.89323 10.5026 10.0117 10.5664C10.1302 10.6211 10.2396 10.6849 10.3398 10.7578C10.4401 10.8307 10.5039 10.8945 10.5312 10.9492C10.5404 10.9948 10.5495 11.0905 10.5586 11.2363C10.5677 11.3822 10.5768 11.5599 10.5859 11.7695C10.9414 11.9518 11.306 12.1615 11.6797 12.3984C12.0534 12.6263 12.3952 12.8451 12.7051 13.0547C13.0697 13.2917 13.416 13.5332 13.7441 13.7793C13.8626 13.8522 13.9355 13.9434 13.9629 14.0527C13.9993 14.1621 14.0039 14.2578 13.9766 14.3398ZM24.1484 18.7969C24.1484 18.8516 24.1758 18.8789 24.2305 18.8789C24.3125 18.8789 24.4492 18.8197 24.6406 18.7012C24.832 18.5827 25.0508 18.4323 25.2969 18.25C25.543 18.0677 25.8027 17.8626 26.0762 17.6348C26.3587 17.4069 26.6276 17.1836 26.8828 16.9648C27.138 16.7461 27.3659 16.5456 27.5664 16.3633C27.776 16.181 27.9355 16.0397 28.0449 15.9395C28.127 16.0215 28.2272 16.1309 28.3457 16.2676C28.4733 16.4043 28.5872 16.5273 28.6875 16.6367C28.4688 16.8372 28.2044 17.0833 27.8945 17.375C27.5938 17.6576 27.2656 17.9538 26.9102 18.2637C26.5638 18.5736 26.2038 18.8835 25.8301 19.1934C25.4564 19.4941 25.0918 19.763 24.7363 20C24.3809 20.237 24.0436 20.4284 23.7246 20.5742C23.4056 20.7292 23.1276 20.8066 22.8906 20.8066C22.7266 20.8066 22.5443 20.7747 22.3438 20.7109C22.1523 20.6471 21.9746 20.556 21.8105 20.4375C21.6465 20.3281 21.5098 20.196 21.4004 20.041C21.291 19.8861 21.2363 19.7129 21.2363 19.5215C21.2363 19.4486 21.2318 19.362 21.2227 19.2617C21.2227 19.1523 21.2318 19.0156 21.25 18.8516C21.2682 18.6784 21.3047 18.4733 21.3594 18.2363C21.4141 17.9902 21.4961 17.6895 21.6055 17.334C21.3047 17.653 20.9492 17.9857 20.5391 18.332C20.138 18.6784 19.7142 19.0065 19.2676 19.3164C18.821 19.6263 18.3698 19.9043 17.9141 20.1504C17.4674 20.4056 17.0527 20.597 16.6699 20.7246C16.6243 20.7428 16.5879 20.752 16.5605 20.752C16.5332 20.752 16.5059 20.752 16.4785 20.752C16.3874 20.752 16.2689 20.7064 16.123 20.6152C15.9681 20.5241 15.8177 20.401 15.6719 20.2461C15.526 20.1003 15.403 19.9316 15.3027 19.7402C15.1934 19.5488 15.1387 19.3574 15.1387 19.166C15.1387 19.1113 15.166 18.929 15.2207 18.6191C15.2754 18.3092 15.4076 17.9173 15.6172 17.4434C15.8177 16.9603 16.1185 16.4225 16.5195 15.8301C16.9206 15.2285 17.4674 14.6133 18.1602 13.9844C18.5156 13.6654 18.8984 13.3646 19.3086 13.082C19.6549 12.8451 20.0514 12.6035 20.498 12.3574C20.9447 12.1113 21.4141 11.9154 21.9062 11.7695C21.9245 11.7695 21.9382 11.765 21.9473 11.7559C21.9655 11.7467 21.9883 11.7513 22.0156 11.7695C22.125 11.806 22.2526 11.8652 22.3984 11.9473C22.5534 12.0202 22.7038 12.1022 22.8496 12.1934C23.0046 12.2754 23.1367 12.362 23.2461 12.4531C23.3646 12.5352 23.4421 12.6035 23.4785 12.6582C23.4876 12.6764 23.4876 12.6901 23.4785 12.6992L23.4512 12.7266C23.041 12.9453 22.6536 13.1914 22.2891 13.4648C21.9245 13.7292 21.6009 13.9798 21.3184 14.2168C20.9902 14.4993 20.6849 14.7773 20.4023 15.0508C19.737 15.707 19.2767 16.2767 19.0215 16.7598C18.7663 17.2337 18.6387 17.5755 18.6387 17.7852C18.6387 17.9401 18.7025 18.0176 18.8301 18.0176C18.9577 18.0176 19.1172 17.9674 19.3086 17.8672C19.5091 17.7578 19.7324 17.6165 19.9785 17.4434C20.2246 17.2611 20.4935 17.0514 20.7852 16.8145C21.0859 16.5684 21.3958 16.3132 21.7148 16.0488C21.9974 15.821 22.2708 15.5749 22.5352 15.3105C22.763 15.0918 23 14.8411 23.2461 14.5586C23.4922 14.276 23.7018 13.9889 23.875 13.6973C23.875 13.6882 23.8796 13.679 23.8887 13.6699C23.8978 13.6608 23.9115 13.6608 23.9297 13.6699C24.0299 13.7428 24.1439 13.8659 24.2715 14.0391C24.3991 14.2031 24.5176 14.3854 24.627 14.5859C24.7363 14.7865 24.8275 14.9824 24.9004 15.1738C24.9824 15.3561 25.0234 15.4974 25.0234 15.5977C24.8138 16.026 24.6497 16.418 24.5312 16.7734C24.4219 17.1198 24.3353 17.4251 24.2715 17.6895C24.2168 17.9538 24.1803 18.1816 24.1621 18.373C24.153 18.5553 24.1484 18.6966 24.1484 18.7969ZM34.4023 18.5781C34.0195 18.5781 33.6868 18.5143 33.4043 18.3867C33.1035 18.7057 32.7891 19.0065 32.4609 19.2891C32.1328 19.5625 31.8092 19.804 31.4902 20.0137C31.1712 20.2324 30.8568 20.4056 30.5469 20.5332C30.237 20.6608 29.9453 20.7337 29.6719 20.752C29.5352 20.752 29.3346 20.6927 29.0703 20.5742C28.8151 20.4557 28.5645 20.3008 28.3184 20.1094C28.0632 19.9271 27.8444 19.7174 27.6621 19.4805C27.4707 19.2344 27.375 18.9883 27.375 18.7422C27.375 18.1406 27.4342 17.5391 27.5527 16.9375C27.6712 16.3268 27.8216 15.7253 28.0039 15.1328C28.1771 14.5404 28.373 13.9616 28.5918 13.3965C28.8014 12.8223 29.002 12.2708 29.1934 11.7422C29.6582 11.9518 30.1094 12.1842 30.5469 12.4395C30.9935 12.6947 31.4082 12.9954 31.791 13.3418C31.6543 13.6152 31.5176 13.9297 31.3809 14.2852C31.2441 14.6406 31.112 15.0098 30.9844 15.3926C30.8568 15.7754 30.7383 16.1582 30.6289 16.541C30.5195 16.9238 30.4238 17.2793 30.3418 17.6074C30.2598 17.9355 30.196 18.2272 30.1504 18.4824C30.1048 18.7285 30.082 18.9062 30.082 19.0156C30.082 19.0885 30.0957 19.1569 30.123 19.2207C30.1595 19.2754 30.2142 19.3027 30.2871 19.3027C30.4329 19.3027 30.5924 19.2572 30.7656 19.166C30.9479 19.0749 31.1393 18.9564 31.3398 18.8105C31.5404 18.6556 31.7409 18.4779 31.9414 18.2773C32.151 18.0677 32.3516 17.849 32.543 17.6211C32.3789 17.3385 32.2969 17.056 32.2969 16.7734C32.2969 16.582 32.3242 16.3542 32.3789 16.0898C32.4427 15.8164 32.5247 15.5339 32.625 15.2422C32.7253 14.9505 32.8346 14.6589 32.9531 14.3672C33.0807 14.0664 33.2083 13.7884 33.3359 13.5332C33.4727 13.278 33.6003 13.0547 33.7188 12.8633C33.8464 12.6719 33.9603 12.5306 34.0605 12.4395C34.2702 12.5215 34.4889 12.6354 34.7168 12.7812C34.9447 12.918 35.1543 13.0684 35.3457 13.2324C35.5371 13.3874 35.6921 13.5423 35.8105 13.6973C35.9382 13.8431 36.0111 13.9661 36.0293 14.0664C36.0293 14.2578 35.9837 14.4811 35.8926 14.7363C35.8014 14.9915 35.6738 15.2695 35.5098 15.5703C35.3548 15.862 35.1634 16.1719 34.9355 16.5C34.7168 16.819 34.4753 17.1426 34.2109 17.4707C34.2656 17.4889 34.3203 17.5072 34.375 17.5254C34.4388 17.5345 34.5117 17.5391 34.5938 17.5391C34.9583 17.5391 35.2819 17.5026 35.5645 17.4297C35.847 17.3568 36.1159 17.252 36.3711 17.1152C36.6263 16.9694 36.877 16.7917 37.123 16.582C37.3691 16.3724 37.638 16.1309 37.9297 15.8574C38.0117 15.9395 38.1165 16.0488 38.2441 16.1855C38.3809 16.3132 38.4902 16.4271 38.5723 16.5273C38.1895 16.9102 37.8249 17.2337 37.4785 17.498C37.1413 17.7533 36.804 17.9629 36.4668 18.127C36.1387 18.2819 35.806 18.3958 35.4688 18.4688C35.1315 18.5417 34.776 18.5781 34.4023 18.5781ZM47.2676 16.6367C46.429 17.457 45.6361 18.1452 44.8887 18.7012C44.1504 19.2572 43.444 19.7038 42.7695 20.041C42.0951 20.3783 41.4479 20.6198 40.8281 20.7656C40.2174 20.9115 39.6204 20.9844 39.0371 20.9844C38.791 20.9844 38.5176 20.8932 38.2168 20.7109C37.916 20.5286 37.638 20.3053 37.3828 20.041C37.1185 19.7858 36.8997 19.5169 36.7266 19.2344C36.5534 18.9518 36.4668 18.7103 36.4668 18.5098C36.4668 17.7624 36.5716 17.0788 36.7812 16.459C36.9818 15.8301 37.2507 15.265 37.5879 14.7637C37.9251 14.2624 38.3079 13.8203 38.7363 13.4375C39.1738 13.0547 39.625 12.7357 40.0898 12.4805C40.5638 12.2253 41.0332 12.0339 41.498 11.9062C41.9629 11.7786 42.3913 11.7148 42.7832 11.7148C43.0658 11.7148 43.3438 11.7969 43.6172 11.9609C43.8997 12.125 44.1549 12.3255 44.3828 12.5625C44.6107 12.7995 44.793 13.0501 44.9297 13.3145C45.0755 13.5697 45.1484 13.793 45.1484 13.9844C45.1484 14.2943 45.0163 14.6133 44.752 14.9414C44.4967 15.2604 44.1322 15.5885 43.6582 15.9258C43.1842 16.263 42.6146 16.6094 41.9492 16.9648C41.2839 17.3112 40.5501 17.6621 39.748 18.0176C39.7207 18.2363 39.707 18.4505 39.707 18.6602C39.707 18.9427 39.7663 19.1341 39.8848 19.2344C40.0124 19.3346 40.2448 19.3848 40.582 19.3848C41.1836 19.3848 41.7487 19.2845 42.2773 19.084C42.8151 18.8835 43.3301 18.6237 43.8223 18.3047C44.3145 17.9857 44.7884 17.6211 45.2441 17.2109C45.6999 16.8008 46.151 16.3861 46.5977 15.9668L47.2676 16.6367ZM42.4551 13.2188C42.2728 13.2188 42.0723 13.319 41.8535 13.5195C41.6348 13.7109 41.416 13.9661 41.1973 14.2852C40.9785 14.6042 40.7689 14.9733 40.5684 15.3926C40.3678 15.8027 40.1947 16.2311 40.0488 16.6777C40.3861 16.459 40.7142 16.2266 41.0332 15.9805C41.3613 15.7344 41.653 15.4792 41.9082 15.2148C42.1634 14.9414 42.3685 14.6634 42.5234 14.3809C42.6784 14.0983 42.7559 13.8158 42.7559 13.5332C42.7559 13.4512 42.7285 13.3783 42.6738 13.3145C42.6283 13.2507 42.5553 13.2188 42.4551 13.2188ZM49.4961 19.043C49.6419 19.043 49.8379 18.9792 50.084 18.8516C50.3392 18.724 50.6172 18.5645 50.918 18.373C51.2188 18.1725 51.5332 17.9538 51.8613 17.7168C52.1895 17.4798 52.4948 17.2474 52.7773 17.0195C53.069 16.7917 53.3288 16.582 53.5566 16.3906C53.7845 16.1992 53.9531 16.0579 54.0625 15.9668C54.1445 16.0488 54.2402 16.1536 54.3496 16.2812C54.4681 16.4089 54.5775 16.5273 54.6777 16.6367C54.4772 16.8372 54.2266 17.0833 53.9258 17.375C53.625 17.6576 53.2969 17.9492 52.9414 18.25C52.5951 18.5508 52.2305 18.8516 51.8477 19.1523C51.474 19.4531 51.1048 19.722 50.7402 19.959C50.3848 20.196 50.0521 20.3874 49.7422 20.5332C49.4323 20.679 49.1725 20.752 48.9629 20.752C48.6803 20.752 48.3796 20.6517 48.0605 20.4512C47.7507 20.2507 47.459 20.0182 47.1855 19.7539C46.9121 19.4805 46.6797 19.207 46.4883 18.9336C46.2969 18.6602 46.1875 18.4551 46.1602 18.3184C46.1419 18.2637 46.1328 18.1999 46.1328 18.127C46.1328 18.0449 46.1328 17.9583 46.1328 17.8672C46.1328 17.4115 46.1921 16.8372 46.3105 16.1445C46.4199 15.4427 46.5703 14.7044 46.7617 13.9297C46.9531 13.1458 47.1719 12.3711 47.418 11.6055C47.6732 10.8307 47.9375 10.1471 48.2109 9.55469C48.7669 8.34245 49.3366 7.26693 49.9199 6.32812C50.5124 5.38932 51.0911 4.57357 51.6562 3.88086C52.2214 3.17904 52.7637 2.59115 53.2832 2.11719C53.8027 1.64323 54.2676 1.26042 54.6777 0.96875C55.097 0.677083 55.4479 0.467448 55.7305 0.339844C56.0221 0.21224 56.2227 0.148438 56.332 0.148438C56.5052 0.21224 56.6784 0.307943 56.8516 0.435547C57.0339 0.554036 57.2025 0.681641 57.3574 0.818359C57.5124 0.955078 57.6491 1.0918 57.7676 1.22852C57.8861 1.35612 57.9727 1.45182 58.0273 1.51562C58.1003 1.58854 58.1458 1.66146 58.1641 1.73438C58.1914 1.79818 58.2051 1.88477 58.2051 1.99414C58.2051 2.21289 58.1504 2.51367 58.041 2.89648C57.9316 3.2793 57.7266 3.76693 57.4258 4.35938C57.125 4.94271 56.7057 5.64453 56.168 6.46484C55.6393 7.28516 54.9466 8.24219 54.0898 9.33594C53.6888 9.84635 53.265 10.3659 52.8184 10.8945C52.4355 11.3503 51.9935 11.847 51.4922 12.3848C50.9909 12.9225 50.4759 13.4375 49.9473 13.9297C49.6829 14.9323 49.4961 15.8164 49.3867 16.582C49.2865 17.3477 49.2363 17.9447 49.2363 18.373C49.2363 18.6556 49.2591 18.8379 49.3047 18.9199C49.3503 19.002 49.4141 19.043 49.4961 19.043ZM51.6836 9.02148C51.5286 9.36784 51.3828 9.70508 51.2461 10.0332C51.1185 10.3613 50.9954 10.6849 50.877 11.0039C51.1595 10.6849 51.4147 10.3796 51.6426 10.0879C51.8796 9.79622 52.0801 9.54557 52.2441 9.33594C52.4355 9.08984 52.6087 8.85742 52.7637 8.63867C53.4017 7.74544 53.9531 6.92513 54.418 6.17773C54.8828 5.43034 55.2656 4.77409 55.5664 4.20898C55.8672 3.63477 56.0859 3.16081 56.2227 2.78711C56.3685 2.4043 56.4414 2.13086 56.4414 1.9668C56.4414 1.92122 56.4368 1.88932 56.4277 1.87109C56.4277 1.84375 56.4049 1.83008 56.3594 1.83008C56.2773 1.83008 56.0905 1.9668 55.7988 2.24023C55.5072 2.50456 55.1471 2.92839 54.7188 3.51172C54.2995 4.09505 53.8255 4.84245 53.2969 5.75391C52.7773 6.65625 52.2396 7.74544 51.6836 9.02148ZM63.5371 16.6367C62.6986 17.457 61.9056 18.1452 61.1582 18.7012C60.4199 19.2572 59.7135 19.7038 59.0391 20.041C58.3646 20.3783 57.7174 20.6198 57.0977 20.7656C56.487 20.9115 55.89 20.9844 55.3066 20.9844C55.0605 20.9844 54.7871 20.8932 54.4863 20.7109C54.1855 20.5286 53.9076 20.3053 53.6523 20.041C53.388 19.7858 53.1693 19.5169 52.9961 19.2344C52.8229 18.9518 52.7363 18.7103 52.7363 18.5098C52.7363 17.7624 52.8411 17.0788 53.0508 16.459C53.2513 15.8301 53.5202 15.265 53.8574 14.7637C54.1947 14.2624 54.5775 13.8203 55.0059 13.4375C55.4434 13.0547 55.8945 12.7357 56.3594 12.4805C56.8333 12.2253 57.3027 12.0339 57.7676 11.9062C58.2324 11.7786 58.6608 11.7148 59.0527 11.7148C59.3353 11.7148 59.6133 11.7969 59.8867 11.9609C60.1693 12.125 60.4245 12.3255 60.6523 12.5625C60.8802 12.7995 61.0625 13.0501 61.1992 13.3145C61.3451 13.5697 61.418 13.793 61.418 13.9844C61.418 14.2943 61.2858 14.6133 61.0215 14.9414C60.7663 15.2604 60.4017 15.5885 59.9277 15.9258C59.4538 16.263 58.8841 16.6094 58.2188 16.9648C57.5534 17.3112 56.8197 17.6621 56.0176 18.0176C55.9902 18.2363 55.9766 18.4505 55.9766 18.6602C55.9766 18.9427 56.0358 19.1341 56.1543 19.2344C56.2819 19.3346 56.5143 19.3848 56.8516 19.3848C57.4531 19.3848 58.0182 19.2845 58.5469 19.084C59.0846 18.8835 59.5996 18.6237 60.0918 18.3047C60.584 17.9857 61.0579 17.6211 61.5137 17.2109C61.9694 16.8008 62.4206 16.3861 62.8672 15.9668L63.5371 16.6367ZM58.7246 13.2188C58.5423 13.2188 58.3418 13.319 58.123 13.5195C57.9043 13.7109 57.6855 13.9661 57.4668 14.2852C57.248 14.6042 57.0384 14.9733 56.8379 15.3926C56.6374 15.8027 56.4642 16.2311 56.3184 16.6777C56.6556 16.459 56.9837 16.2266 57.3027 15.9805C57.6309 15.7344 57.9225 15.4792 58.1777 15.2148C58.4329 14.9414 58.638 14.6634 58.793 14.3809C58.9479 14.0983 59.0254 13.8158 59.0254 13.5332C59.0254 13.4512 58.998 13.3783 58.9434 13.3145C58.8978 13.2507 58.8249 13.2188 58.7246 13.2188ZM69.0742 14.3398C68.9557 14.6953 68.8053 15.1009 68.623 15.5566C68.4499 16.0124 68.2812 16.459 68.1172 16.8965C67.9531 17.334 67.8118 17.7305 67.6934 18.0859C67.584 18.4414 67.5293 18.6966 67.5293 18.8516C67.5293 18.9062 67.5566 18.9336 67.6113 18.9336C67.7116 18.9336 67.862 18.8743 68.0625 18.7559C68.263 18.6374 68.4909 18.4824 68.7461 18.291C69.0104 18.0996 69.2839 17.89 69.5664 17.6621C69.849 17.4342 70.1178 17.2109 70.373 16.9922C70.6374 16.7643 70.8743 16.5592 71.084 16.377C71.2936 16.1947 71.4531 16.0579 71.5625 15.9668C71.6445 16.0488 71.7402 16.1536 71.8496 16.2812C71.9681 16.4089 72.0775 16.5273 72.1777 16.6367C71.9772 16.8372 71.7266 17.0833 71.4258 17.375C71.125 17.6576 70.7969 17.9492 70.4414 18.25C70.0951 18.5508 69.7305 18.8516 69.3477 19.1523C68.974 19.4531 68.6048 19.722 68.2402 19.959C67.8848 20.196 67.5521 20.3874 67.2422 20.5332C66.9323 20.679 66.6725 20.752 66.4629 20.752C66.3262 20.752 66.153 20.7018 65.9434 20.6016C65.7337 20.5104 65.5332 20.3919 65.3418 20.2461C65.1504 20.1094 64.9863 19.9544 64.8496 19.7812C64.7129 19.6081 64.6445 19.4395 64.6445 19.2754C64.7812 18.6647 64.918 18.1315 65.0547 17.6758C65.1914 17.2201 65.319 16.8327 65.4375 16.5137C65.556 16.1855 65.6608 15.9212 65.752 15.7207C65.8431 15.5202 65.9115 15.3698 65.957 15.2695C65.8477 15.224 65.7428 15.1738 65.6426 15.1191C65.5423 15.0645 65.4421 15.0098 65.3418 14.9551C65.196 15.11 65.0319 15.2741 64.8496 15.4473C64.6764 15.6204 64.4987 15.7936 64.3164 15.9668C64.1341 16.14 63.9518 16.3086 63.7695 16.4727C63.5872 16.6367 63.4232 16.7871 63.2773 16.9238L62.6211 16.2539C62.8581 16.026 63.1452 15.7526 63.4824 15.4336C63.8105 15.1055 64.1341 14.7773 64.4531 14.4492C64.2253 14.3125 64.0202 14.1849 63.8379 14.0664C63.6556 13.9388 63.5007 13.8249 63.373 13.7246C63.2181 13.6152 63.0814 13.515 62.9629 13.4238C62.9082 13.3965 62.8809 13.3372 62.8809 13.2461C62.8809 13.1458 62.9219 13.0046 63.0039 12.8223C63.0768 12.6309 63.1725 12.4303 63.291 12.2207C63.4095 12.002 63.5371 11.7832 63.6738 11.5645C63.8105 11.3366 63.9427 11.1315 64.0703 10.9492C64.1979 10.7669 64.3073 10.6211 64.3984 10.5117C64.4987 10.3932 64.5625 10.334 64.5898 10.334C64.6081 10.334 64.6673 10.3568 64.7676 10.4023C64.877 10.4479 64.9909 10.5026 65.1094 10.5664C65.2279 10.6211 65.3372 10.6849 65.4375 10.7578C65.5378 10.8307 65.6016 10.8945 65.6289 10.9492C65.638 10.9948 65.6471 11.0905 65.6562 11.2363C65.6654 11.3822 65.6745 11.5599 65.6836 11.7695C66.0391 11.9518 66.4036 12.1615 66.7773 12.3984C67.151 12.6263 67.4928 12.8451 67.8027 13.0547C68.1673 13.2917 68.5137 13.5332 68.8418 13.7793C68.9603 13.8522 69.0332 13.9434 69.0605 14.0527C69.097 14.1621 69.1016 14.2578 69.0742 14.3398Z" fill="#131515"/>
</svg>
